<svg xmlns="http://www.w3.org/2000/svg" viewBox="0 0 64 64" role="img" aria-label="Property True">
  <defs>
    <linearGradient id="plate" x1="8" y1="0" x2="56" y2="64" gradientUnits="userSpaceOnUse">
      <stop offset="0%" stop-color="#020617"/>
      <stop offset="38%" stop-color="#0b1630"/>
      <stop offset="72%" stop-color="#123a8c"/>
      <stop offset="100%" stop-color="#1d5fd6"/>
    </linearGradient>
    <linearGradient id="rim" x1="10" y1="6" x2="54" y2="58" gradientUnits="userSpaceOnUse">
      <stop offset="0%" stop-color="#dbeafe" stop-opacity="0.55"/>
      <stop offset="55%" stop-color="#60a5fa" stop-opacity="0.22"/>
      <stop offset="100%" stop-color="#1d4ed8" stop-opacity="0.08"/>
    </linearGradient>
    <radialGradient id="glow" cx="50%" cy="28%" r="55%">
      <stop offset="0%" stop-color="#3b82f6" stop-opacity="0.45"/>
      <stop offset="55%" stop-color="#1d4ed8" stop-opacity="0.12"/>
      <stop offset="100%" stop-color="#020617" stop-opacity="0"/>
    </radialGradient>
    <linearGradient id="tFace" x1="20" y1="12" x2="44" y2="52" gradientUnits="userSpaceOnUse">
      <stop offset="0%" stop-color="#ffffff"/>
      <stop offset="48%" stop-color="#eef4ff"/>
      <stop offset="100%" stop-color="#9ec0ff"/>
    </linearGradient>
    <linearGradient id="tShade" x1="32" y1="14" x2="32" y2="52" gradientUnits="userSpaceOnUse">
      <stop offset="0%" stop-color="#ffffff" stop-opacity="0"/>
      <stop offset="100%" stop-color="#1e3a8a" stop-opacity="0.22"/>
    </linearGradient>
    <filter id="soft" x="-20%" y="-20%" width="140%" height="140%">
      <feDropShadow dx="0" dy="1.5" stdDeviation="1.2" flood-color="#020617" flood-opacity="0.35"/>
    </filter>
  </defs>

  <!-- app plate -->
  <rect width="64" height="64" rx="16" fill="url(#plate)"/>
  <rect width="64" height="64" rx="16" fill="url(#glow)"/>
  <rect x="1.2" y="1.2" width="61.6" height="61.6" rx="14.8" fill="none" stroke="url(#rim)" stroke-width="1.4"/>

  <!-- clean letter T -->
  <g filter="url(#soft)">
    <path fill="url(#tFace)" d="M16.2 15.4c0-1.35 1.1-2.45 2.45-2.45h26.7c1.35 0 2.45 1.1 2.45 2.45v7.1c0 1.35-1.1 2.45-2.45 2.45H36.05V48.2c0 1.45-1.18 2.63-2.63 2.63h-2.84c-1.45 0-2.63-1.18-2.63-2.63V25h-9.3c-1.35 0-2.45-1.1-2.45-2.45v-7.1z"/>
    <path fill="url(#tShade)" d="M16.2 15.4c0-1.35 1.1-2.45 2.45-2.45h26.7c1.35 0 2.45 1.1 2.45 2.45v7.1c0 1.35-1.1 2.45-2.45 2.45H36.05V48.2c0 1.45-1.18 2.63-2.63 2.63h-2.84c-1.45 0-2.63-1.18-2.63-2.63V25h-9.3c-1.35 0-2.45-1.1-2.45-2.45v-7.1z"/>
    <!-- top gloss -->
    <path fill="#ffffff" opacity="0.28" d="M18.9 14.2h26.2c.7 0 1.25.55 1.25 1.25v1.7c0 .55-.45 1-1 1H35.4l-1.7 2.4h-3.4l-1.7-2.4H18.65c-.55 0-1-.45-1-1v-1.7c0-.7.55-1.25 1.25-1.25z"/>
  </g>
</svg>
